<svg xmlns="http://www.w3.org/2000/svg" width="1400" height="860" viewBox="0 0 1400 860" role="img" aria-labelledby="title desc">
<title id="title">Maze Solver AutoResearch Progress</title>
<desc id="desc">A benchmark score chart showing the maze solver improving quickly in early rounds and then flattening into smaller latency wins.</desc>
<defs>
<linearGradient id="bg" x1="0" y1="0" x2="1" y2="1">
<stop offset="0%" stop-color="#FFF9F0"/>
<stop offset="100%" stop-color="#F5F8FF"/>
</linearGradient>
<linearGradient id="area" x1="0" y1="0" x2="0" y2="1">
<stop offset="0%" stop-color="#22A06B" stop-opacity="0.28"/>
<stop offset="100%" stop-color="#22A06B" stop-opacity="0.02"/>
</linearGradient>
<filter id="shadow" x="-10%" y="-10%" width="120%" height="120%">
<feDropShadow dx="0" dy="10" stdDeviation="12" flood-color="#102A4316"/>
</filter>
</defs>
<rect x="14" y="14" width="1372" height="832" rx="28" fill="url(#bg)" stroke="#E7E1D3" stroke-width="2"/>
<circle cx="1240" cy="140" r="110" fill="#E7F5EC"/>
<circle cx="1180" cy="120" r="64" fill="#FFF2D6"/>
<circle cx="1320" cy="280" r="70" fill="#EAF0FF"/>
<text x="72" y="86" font-family="ui-sans-serif, system-ui, -apple-system, Segoe UI, sans-serif" font-size="34" font-weight="700" fill="#16202A">Maze Solver AutoResearch Progress</text>
<text x="72" y="118" font-family="ui-sans-serif, system-ui, -apple-system, Segoe UI, sans-serif" font-size="17" fill="#52606D">Run 20260401T202321Z  •  completed rounds 0-22  •  18 accepted promotions  •  score now dominated by latency tuning</text>
<rect x="72" y="118" width="290" height="78" rx="20" fill="#FFFFFF" stroke="#E7E1D3" filter="url(#shadow)"/>
<text x="94" y="136" font-family="ui-sans-serif, system-ui, -apple-system, Segoe UI, sans-serif" font-size="15" fill="#6B7280">Best score</text>
<text x="94" y="166" font-family="ui-sans-serif, system-ui, -apple-system, Segoe UI, sans-serif" font-size="28" font-weight="700" fill="#153A2D">154,781</text>
<rect x="382" y="118" width="290" height="78" rx="20" fill="#FFFFFF" stroke="#E7E1D3" filter="url(#shadow)"/>
<text x="404" y="136" font-family="ui-sans-serif, system-ui, -apple-system, Segoe UI, sans-serif" font-size="15" fill="#6B7280">Gain vs baseline</text>
<text x="404" y="166" font-family="ui-sans-serif, system-ui, -apple-system, Segoe UI, sans-serif" font-size="28" font-weight="700" fill="#6C4A10">+15,489 (11.1%)</text>
<rect x="692" y="118" width="290" height="78" rx="20" fill="#FFFFFF" stroke="#E7E1D3" filter="url(#shadow)"/>
<text x="714" y="136" font-family="ui-sans-serif, system-ui, -apple-system, Segoe UI, sans-serif" font-size="15" fill="#6B7280">Accepted rounds</text>
<text x="714" y="166" font-family="ui-sans-serif, system-ui, -apple-system, Segoe UI, sans-serif" font-size="28" font-weight="700" fill="#24364A">18/22</text>
<rect x="1002" y="118" width="290" height="78" rx="20" fill="#FFFFFF" stroke="#E7E1D3" filter="url(#shadow)"/>
<text x="1024" y="136" font-family="ui-sans-serif, system-ui, -apple-system, Segoe UI, sans-serif" font-size="15" fill="#6B7280">Current champion</text>
<text x="1024" y="166" font-family="ui-sans-serif, system-ui, -apple-system, Segoe UI, sans-serif" font-size="28" font-weight="700" fill="#4A2C4A">r021</text>
<rect x="120" y="194" width="1240" height="528" rx="28" fill="#FFFFFF" stroke="#E7E1D3" filter="url(#shadow)"/>
<text x="148" y="218" font-family="ui-sans-serif, system-ui, -apple-system, Segoe UI, sans-serif" font-size="18" font-weight="700" fill="#243B53">Benchmark score by round</text>
<text x="148" y="242" font-family="ui-sans-serif, system-ui, -apple-system, Segoe UI, sans-serif" font-size="14" fill="#6B7280">The inset zoom keeps late-round progress legible without distorting the early breakthrough on the main scale.</text>
<line x1="148" y1="690.00" x2="1336" y2="690.00" stroke="#E8E2D8" stroke-width="1"/>
<text x="130" y="695.00" text-anchor="end" font-family="ui-sans-serif, system-ui, -apple-system, Segoe UI, sans-serif" font-size="13" fill="#7B8794">135,000</text>
<line x1="148" y1="616.80" x2="1336" y2="616.80" stroke="#E8E2D8" stroke-width="1"/>
<text x="130" y="621.80" text-anchor="end" font-family="ui-sans-serif, system-ui, -apple-system, Segoe UI, sans-serif" font-size="13" fill="#7B8794">140,000</text>
<line x1="148" y1="543.60" x2="1336" y2="543.60" stroke="#E8E2D8" stroke-width="1"/>
<text x="130" y="548.60" text-anchor="end" font-family="ui-sans-serif, system-ui, -apple-system, Segoe UI, sans-serif" font-size="13" fill="#7B8794">145,000</text>
<line x1="148" y1="470.40" x2="1336" y2="470.40" stroke="#E8E2D8" stroke-width="1"/>
<text x="130" y="475.40" text-anchor="end" font-family="ui-sans-serif, system-ui, -apple-system, Segoe UI, sans-serif" font-size="13" fill="#7B8794">150,000</text>
<line x1="148" y1="397.20" x2="1336" y2="397.20" stroke="#E8E2D8" stroke-width="1"/>
<text x="130" y="402.20" text-anchor="end" font-family="ui-sans-serif, system-ui, -apple-system, Segoe UI, sans-serif" font-size="13" fill="#7B8794">155,000</text>
<line x1="148" y1="324.00" x2="1336" y2="324.00" stroke="#E8E2D8" stroke-width="1"/>
<text x="130" y="329.00" text-anchor="end" font-family="ui-sans-serif, system-ui, -apple-system, Segoe UI, sans-serif" font-size="13" fill="#7B8794">160,000</text>
<line x1="148.00" y1="324" x2="148.00" y2="690" stroke="#F2EEE8" stroke-width="1"/>
<text x="148.00" y="718" text-anchor="middle" font-family="ui-sans-serif, system-ui, -apple-system, Segoe UI, sans-serif" font-size="13" fill="#7B8794">0</text>
<line x1="256.00" y1="324" x2="256.00" y2="690" stroke="#F2EEE8" stroke-width="1"/>
<text x="256.00" y="718" text-anchor="middle" font-family="ui-sans-serif, system-ui, -apple-system, Segoe UI, sans-serif" font-size="13" fill="#7B8794">2</text>
<line x1="364.00" y1="324" x2="364.00" y2="690" stroke="#F2EEE8" stroke-width="1"/>
<text x="364.00" y="718" text-anchor="middle" font-family="ui-sans-serif, system-ui, -apple-system, Segoe UI, sans-serif" font-size="13" fill="#7B8794">4</text>
<line x1="472.00" y1="324" x2="472.00" y2="690" stroke="#F2EEE8" stroke-width="1"/>
<text x="472.00" y="718" text-anchor="middle" font-family="ui-sans-serif, system-ui, -apple-system, Segoe UI, sans-serif" font-size="13" fill="#7B8794">6</text>
<line x1="580.00" y1="324" x2="580.00" y2="690" stroke="#F2EEE8" stroke-width="1"/>
<text x="580.00" y="718" text-anchor="middle" font-family="ui-sans-serif, system-ui, -apple-system, Segoe UI, sans-serif" font-size="13" fill="#7B8794">8</text>
<line x1="688.00" y1="324" x2="688.00" y2="690" stroke="#F2EEE8" stroke-width="1"/>
<text x="688.00" y="718" text-anchor="middle" font-family="ui-sans-serif, system-ui, -apple-system, Segoe UI, sans-serif" font-size="13" fill="#7B8794">10</text>
<line x1="796.00" y1="324" x2="796.00" y2="690" stroke="#F2EEE8" stroke-width="1"/>
<text x="796.00" y="718" text-anchor="middle" font-family="ui-sans-serif, system-ui, -apple-system, Segoe UI, sans-serif" font-size="13" fill="#7B8794">12</text>
<line x1="904.00" y1="324" x2="904.00" y2="690" stroke="#F2EEE8" stroke-width="1"/>
<text x="904.00" y="718" text-anchor="middle" font-family="ui-sans-serif, system-ui, -apple-system, Segoe UI, sans-serif" font-size="13" fill="#7B8794">14</text>
<line x1="1012.00" y1="324" x2="1012.00" y2="690" stroke="#F2EEE8" stroke-width="1"/>
<text x="1012.00" y="718" text-anchor="middle" font-family="ui-sans-serif, system-ui, -apple-system, Segoe UI, sans-serif" font-size="13" fill="#7B8794">16</text>
<line x1="1120.00" y1="324" x2="1120.00" y2="690" stroke="#F2EEE8" stroke-width="1"/>
<text x="1120.00" y="718" text-anchor="middle" font-family="ui-sans-serif, system-ui, -apple-system, Segoe UI, sans-serif" font-size="13" fill="#7B8794">18</text>
<line x1="1228.00" y1="324" x2="1228.00" y2="690" stroke="#F2EEE8" stroke-width="1"/>
<text x="1228.00" y="718" text-anchor="middle" font-family="ui-sans-serif, system-ui, -apple-system, Segoe UI, sans-serif" font-size="13" fill="#7B8794">20</text>
<line x1="1336.00" y1="324" x2="1336.00" y2="690" stroke="#F2EEE8" stroke-width="1"/>
<text x="1336.00" y="718" text-anchor="middle" font-family="ui-sans-serif, system-ui, -apple-system, Segoe UI, sans-serif" font-size="13" fill="#7B8794">22</text>
<path d="M148.00,627.17 L202.00,418.35 L256.00,402.13 L310.00,401.67 L364.00,401.09 L418.00,401.04 L472.00,400.89 L526.00,400.71 L580.00,400.64 L634.00,400.61 L688.00,400.58 L742.00,400.57 L796.00,400.54 L850.00,400.51 L904.00,400.51 L958.00,400.49 L1012.00,400.48 L1066.00,400.44 L1120.00,400.42 L1174.00,400.42 L1228.00,400.42 L1282.00,400.41 L1336.00,400.41 L1336.00,690.00 L148.00,690.00 Z" fill="url(#area)"/>
<path d="M148.00,627.17 L202.00,418.35 L256.00,402.13 L310.00,401.67 L364.00,401.09 L418.00,401.04 L472.00,400.89 L526.00,400.71 L580.00,400.64 L634.00,400.61 L688.00,400.58 L742.00,400.57 L796.00,400.54 L850.00,400.51 L904.00,400.51 L958.00,400.49 L1012.00,400.48 L1066.00,400.44 L1120.00,400.42 L1174.00,400.42 L1228.00,400.42 L1282.00,400.41 L1336.00,400.41" fill="none" stroke="#18794E" stroke-width="5" stroke-linecap="round" stroke-linejoin="round"/>
<circle cx="148.00" cy="627.17" r="7" fill="#64748B" stroke="#FFFFFF" stroke-width="3"/>
<circle cx="202.00" cy="418.35" r="8" fill="#1D8F5A" stroke="#FFFFFF" stroke-width="3"/>
<circle cx="256.00" cy="402.13" r="8" fill="#1D8F5A" stroke="#FFFFFF" stroke-width="3"/>
<circle cx="310.00" cy="401.67" r="8" fill="#1D8F5A" stroke="#FFFFFF" stroke-width="3"/>
<circle cx="364.00" cy="401.09" r="8" fill="#1D8F5A" stroke="#FFFFFF" stroke-width="3"/>
<circle cx="418.00" cy="401.04" r="8" fill="#1D8F5A" stroke="#FFFFFF" stroke-width="3"/>
<circle cx="472.00" cy="400.89" r="8" fill="#1D8F5A" stroke="#FFFFFF" stroke-width="3"/>
<circle cx="526.00" cy="400.71" r="8" fill="#1D8F5A" stroke="#FFFFFF" stroke-width="3"/>
<circle cx="580.00" cy="400.64" r="8" fill="#1D8F5A" stroke="#FFFFFF" stroke-width="3"/>
<circle cx="634.00" cy="400.61" r="8" fill="#1D8F5A" stroke="#FFFFFF" stroke-width="3"/>
<circle cx="688.00" cy="400.58" r="8" fill="#1D8F5A" stroke="#FFFFFF" stroke-width="3"/>
<circle cx="742.00" cy="400.57" r="8" fill="#1D8F5A" stroke="#FFFFFF" stroke-width="3"/>
<circle cx="796.00" cy="400.54" r="8" fill="#1D8F5A" stroke="#FFFFFF" stroke-width="3"/>
<circle cx="850.00" cy="400.51" r="8" fill="#1D8F5A" stroke="#FFFFFF" stroke-width="3"/>
<circle cx="904.00" cy="400.51" r="6" fill="#C97A18" stroke="#FFFFFF" stroke-width="3"/>
<circle cx="958.00" cy="400.49" r="8" fill="#1D8F5A" stroke="#FFFFFF" stroke-width="3"/>
<circle cx="1012.00" cy="400.48" r="8" fill="#1D8F5A" stroke="#FFFFFF" stroke-width="3"/>
<circle cx="1066.00" cy="400.44" r="8" fill="#1D8F5A" stroke="#FFFFFF" stroke-width="3"/>
<circle cx="1120.00" cy="400.42" r="8" fill="#1D8F5A" stroke="#FFFFFF" stroke-width="3"/>
<circle cx="1174.00" cy="400.42" r="6" fill="#7C8798" stroke="#FFFFFF" stroke-width="3"/>
<circle cx="1228.00" cy="400.42" r="6" fill="#7C8798" stroke="#FFFFFF" stroke-width="3"/>
<circle cx="1282.00" cy="400.41" r="8" fill="#1D8F5A" stroke="#FFFFFF" stroke-width="3"/>
<circle cx="1336.00" cy="400.41" r="6" fill="#7C8798" stroke="#FFFFFF" stroke-width="3"/>
<circle cx="1046.00" cy="218.00" r="6" fill="#1D8F5A"/>
<text x="1060.00" y="223.00" font-family="ui-sans-serif, system-ui, -apple-system, Segoe UI, sans-serif" font-size="13" fill="#52606D">Accepted</text>
<circle cx="1184.00" cy="218.00" r="6" fill="#7C8798"/>
<text x="1198.00" y="223.00" font-family="ui-sans-serif, system-ui, -apple-system, Segoe UI, sans-serif" font-size="13" fill="#52606D">Unchanged</text>
<circle cx="1046.00" cy="242.00" r="6" fill="#C97A18"/>
<text x="1060.00" y="247.00" font-family="ui-sans-serif, system-ui, -apple-system, Segoe UI, sans-serif" font-size="13" fill="#52606D">Rejected</text>
<circle cx="1184.00" cy="242.00" r="6" fill="#D9485F"/>
<text x="1198.00" y="247.00" font-family="ui-sans-serif, system-ui, -apple-system, Segoe UI, sans-serif" font-size="13" fill="#52606D">Failed</text>
<rect x="1016" y="560" width="280" height="140" rx="18" fill="#FFFDFC" stroke="#E7E1D3"/>
<text x="1032" y="582" font-family="ui-sans-serif, system-ui, -apple-system, Segoe UI, sans-serif" font-size="13" font-weight="700" fill="#243B53">Zoom: rounds 2-22</text>
<text x="1032" y="598" font-family="ui-sans-serif, system-ui, -apple-system, Segoe UI, sans-serif" font-size="11" fill="#7B8794">Late progress is real, but it arrives in tiny latency-bucket steps.</text>
<line x1="1030" y1="715.37" x2="1282" y2="715.37" stroke="#F1ECE5" stroke-width="1"/>
<text x="1276" y="686.00" text-anchor="end" font-family="ui-sans-serif, system-ui, -apple-system, Segoe UI, sans-serif" font-size="10" fill="#7B8794">154,600</text>
<line x1="1030" y1="687.35" x2="1282" y2="687.35" stroke="#F1ECE5" stroke-width="1"/>
<text x="1276" y="686.00" text-anchor="end" font-family="ui-sans-serif, system-ui, -apple-system, Segoe UI, sans-serif" font-size="10" fill="#7B8794">154,650</text>
<line x1="1030" y1="659.33" x2="1282" y2="659.33" stroke="#F1ECE5" stroke-width="1"/>
<text x="1276" y="663.33" text-anchor="end" font-family="ui-sans-serif, system-ui, -apple-system, Segoe UI, sans-serif" font-size="10" fill="#7B8794">154,700</text>
<line x1="1030" y1="631.31" x2="1282" y2="631.31" stroke="#F1ECE5" stroke-width="1"/>
<text x="1276" y="635.31" text-anchor="end" font-family="ui-sans-serif, system-ui, -apple-system, Segoe UI, sans-serif" font-size="10" fill="#7B8794">154,750</text>
<line x1="1030" y1="603.29" x2="1282" y2="603.29" stroke="#F1ECE5" stroke-width="1"/>
<text x="1276" y="616.00" text-anchor="end" font-family="ui-sans-serif, system-ui, -apple-system, Segoe UI, sans-serif" font-size="10" fill="#7B8794">154,800</text>
<path d="M1030.00,680.06 L1042.60,662.13 L1055.20,640.28 L1067.80,638.03 L1080.40,632.43 L1093.00,625.70 L1105.60,622.90 L1118.20,621.78 L1130.80,620.66 L1143.40,620.10 L1156.00,618.98 L1168.60,617.86 L1181.20,617.86 L1193.80,617.30 L1206.40,616.74 L1219.00,615.06 L1231.60,614.50 L1244.20,614.50 L1256.80,614.50 L1269.40,613.94 L1282.00,613.94" fill="none" stroke="#0F8A5F" stroke-width="3.5" stroke-linecap="round" stroke-linejoin="round"/>
<circle cx="1030.00" cy="680.06" r="4.5" fill="#1D8F5A" stroke="#FFFFFF" stroke-width="1.5"/>
<circle cx="1042.60" cy="662.13" r="4.5" fill="#1D8F5A" stroke="#FFFFFF" stroke-width="1.5"/>
<circle cx="1055.20" cy="640.28" r="4.5" fill="#1D8F5A" stroke="#FFFFFF" stroke-width="1.5"/>
<circle cx="1067.80" cy="638.03" r="4.5" fill="#1D8F5A" stroke="#FFFFFF" stroke-width="1.5"/>
<circle cx="1080.40" cy="632.43" r="4.5" fill="#1D8F5A" stroke="#FFFFFF" stroke-width="1.5"/>
<circle cx="1093.00" cy="625.70" r="4.5" fill="#1D8F5A" stroke="#FFFFFF" stroke-width="1.5"/>
<circle cx="1105.60" cy="622.90" r="4.5" fill="#1D8F5A" stroke="#FFFFFF" stroke-width="1.5"/>
<circle cx="1118.20" cy="621.78" r="4.5" fill="#1D8F5A" stroke="#FFFFFF" stroke-width="1.5"/>
<circle cx="1130.80" cy="620.66" r="4.5" fill="#1D8F5A" stroke="#FFFFFF" stroke-width="1.5"/>
<circle cx="1143.40" cy="620.10" r="4.5" fill="#1D8F5A" stroke="#FFFFFF" stroke-width="1.5"/>
<circle cx="1156.00" cy="618.98" r="4.5" fill="#1D8F5A" stroke="#FFFFFF" stroke-width="1.5"/>
<circle cx="1168.60" cy="617.86" r="4.5" fill="#1D8F5A" stroke="#FFFFFF" stroke-width="1.5"/>
<circle cx="1181.20" cy="617.86" r="4.5" fill="#C97A18" stroke="#FFFFFF" stroke-width="1.5"/>
<circle cx="1193.80" cy="617.30" r="4.5" fill="#1D8F5A" stroke="#FFFFFF" stroke-width="1.5"/>
<circle cx="1206.40" cy="616.74" r="4.5" fill="#1D8F5A" stroke="#FFFFFF" stroke-width="1.5"/>
<circle cx="1219.00" cy="615.06" r="4.5" fill="#1D8F5A" stroke="#FFFFFF" stroke-width="1.5"/>
<circle cx="1231.60" cy="614.50" r="4.5" fill="#1D8F5A" stroke="#FFFFFF" stroke-width="1.5"/>
<circle cx="1244.20" cy="614.50" r="4.5" fill="#7C8798" stroke="#FFFFFF" stroke-width="1.5"/>
<circle cx="1256.80" cy="614.50" r="4.5" fill="#7C8798" stroke="#FFFFFF" stroke-width="1.5"/>
<circle cx="1269.40" cy="613.94" r="4.5" fill="#1D8F5A" stroke="#FFFFFF" stroke-width="1.5"/>
<circle cx="1282.00" cy="613.94" r="4.5" fill="#7C8798" stroke="#FFFFFF" stroke-width="1.5"/>
<path d="M202.00,418.35 L242.00,284.00" stroke="#A0AEC0" stroke-width="2" stroke-dasharray="4 5"/>
<rect x="224.00" y="250.00" width="172" height="68" rx="16" fill="#FFFFFF" stroke="#E7E1D3"/>
<text x="238.00" y="277.00" font-family="ui-sans-serif, system-ui, -apple-system, Segoe UI, sans-serif" font-size="15" font-weight="700" fill="#243B53">Fast path</text>
<text x="238.00" y="297.00" font-family="ui-sans-serif, system-ui, -apple-system, Segoe UI, sans-serif" font-size="15" font-weight="500" fill="#243B53">+14,263</text>
<path d="M256.00,402.13 L430.00,284.00" stroke="#A0AEC0" stroke-width="2" stroke-dasharray="4 5"/>
<rect x="412.00" y="250.00" width="172" height="68" rx="16" fill="#FFFFFF" stroke="#E7E1D3"/>
<text x="426.00" y="277.00" font-family="ui-sans-serif, system-ui, -apple-system, Segoe UI, sans-serif" font-size="15" font-weight="700" fill="#243B53">Refinement</text>
<text x="426.00" y="297.00" font-family="ui-sans-serif, system-ui, -apple-system, Segoe UI, sans-serif" font-size="15" font-weight="500" fill="#243B53">+1,108</text>
<path d="M904.00,400.51 L842.00,284.00" stroke="#A0AEC0" stroke-width="2" stroke-dasharray="4 5"/>
<rect x="688.00" y="250.00" width="172" height="68" rx="16" fill="#FFFFFF" stroke="#E7E1D3"/>
<text x="702.00" y="277.00" font-family="ui-sans-serif, system-ui, -apple-system, Segoe UI, sans-serif" font-size="15" font-weight="700" fill="#243B53">Plateau / noise</text>
<text x="702.00" y="297.00" font-family="ui-sans-serif, system-ui, -apple-system, Segoe UI, sans-serif" font-size="15" font-weight="500" fill="#243B53">begins</text>
<path d="M1282.00,400.41 L1116.00,284.00" stroke="#A0AEC0" stroke-width="2" stroke-dasharray="4 5"/>
<rect x="962.00" y="250.00" width="172" height="68" rx="16" fill="#FFFFFF" stroke="#E7E1D3"/>
<text x="976.00" y="277.00" font-family="ui-sans-serif, system-ui, -apple-system, Segoe UI, sans-serif" font-size="15" font-weight="700" fill="#243B53">Current best</text>
<text x="976.00" y="297.00" font-family="ui-sans-serif, system-ui, -apple-system, Segoe UI, sans-serif" font-size="15" font-weight="500" fill="#243B53">154,781</text>
<text x="1336" y="824" text-anchor="end" font-family="ui-sans-serif, system-ui, -apple-system, Segoe UI, sans-serif" font-size="12" fill="#8A94A6">Chart generated from .autoresearch results.tsv. Completed rounds shown through r022; any in-progress round is intentionally omitted.</text>
</svg>